<?xml version="1.0" encoding="UTF-8"?>
<!--Generator: Apple Native CoreSVG 341-->
<!DOCTYPE svg
PUBLIC "-//W3C//DTD SVG 1.1//EN"
       "http://www.w3.org/Graphics/SVG/1.1/DTD/svg11.dtd">
<svg version="1.1" xmlns="http://www.w3.org/2000/svg" xmlns:xlink="http://www.w3.org/1999/xlink" viewBox="0 0 3300 2200">
 <!--glyph: "", point size: 100.0, font version: "20.0d10e1", template writer version: "138.0.0"-->
 <style>.monochrome-0 {-sfsymbols-motion-group:1;-sfsymbols-layer-tags:-37adb79ecd5a7f 525476c7dcabffce dollarsign.bank.building.fill}
.monochrome-1 {opacity:0.0;-sfsymbols-clear-behind:true;-sfsymbols-motion-group:1;-sfsymbols-layer-tags:-37adb79ecd5a7f 525476c7dcabffce dollarsign.bank.building.fill}
.monochrome-2 {opacity:0.0;-sfsymbols-clear-behind:true;-sfsymbols-motion-group:0;-sfsymbols-layer-tags:-37adb79ecd5a7f _slash}
.monochrome-3 {-sfsymbols-motion-group:0;-sfsymbols-layer-tags:-37adb79ecd5a7f _slash}

.multicolor-0:tintColor {-sfsymbols-motion-group:1;-sfsymbols-layer-tags:-37adb79ecd5a7f 525476c7dcabffce dollarsign.bank.building.fill}
.multicolor-1:tintColor {opacity:0.0;-sfsymbols-clear-behind:true;-sfsymbols-motion-group:1;-sfsymbols-layer-tags:-37adb79ecd5a7f 525476c7dcabffce dollarsign.bank.building.fill}
.multicolor-2:tintColor {opacity:0.0;-sfsymbols-clear-behind:true;-sfsymbols-motion-group:0;-sfsymbols-layer-tags:-37adb79ecd5a7f _slash}
.multicolor-3:tintColor {-sfsymbols-motion-group:0;-sfsymbols-layer-tags:-37adb79ecd5a7f _slash}

.hierarchical-0:secondary {-sfsymbols-motion-group:1;-sfsymbols-layer-tags:-37adb79ecd5a7f 525476c7dcabffce dollarsign.bank.building.fill}
.hierarchical-1:primary {opacity:0.0;-sfsymbols-clear-behind:true;-sfsymbols-motion-group:1;-sfsymbols-layer-tags:-37adb79ecd5a7f 525476c7dcabffce dollarsign.bank.building.fill}
.hierarchical-2:primary {opacity:0.0;-sfsymbols-clear-behind:true;-sfsymbols-motion-group:0;-sfsymbols-layer-tags:-37adb79ecd5a7f _slash}
.hierarchical-3:primary {-sfsymbols-motion-group:0;-sfsymbols-layer-tags:-37adb79ecd5a7f _slash}

.SFSymbolsPreviewWireframe {fill:none;opacity:1.0;stroke:black;stroke-width:0.5}
</style>
 <g id="Notes">
  <rect height="2200" id="artboard" style="fill:white;opacity:1" width="3300" x="0" y="0"/>
  <line style="fill:none;stroke:black;opacity:1;stroke-width:0.5;" x1="263" x2="3036" y1="292" y2="292"/>
  <text style="stroke:none;fill:black;font-family:sans-serif;font-size:13;font-weight:bold;" transform="matrix(1 0 0 1 263 322)">Weight/Scale Variations</text>
  <text style="stroke:none;fill:black;font-family:sans-serif;font-size:13;text-anchor:middle;" transform="matrix(1 0 0 1 559.711 322)">Ultralight</text>
  <text style="stroke:none;fill:black;font-family:sans-serif;font-size:13;text-anchor:middle;" transform="matrix(1 0 0 1 856.422 322)">Thin</text>
  <text style="stroke:none;fill:black;font-family:sans-serif;font-size:13;text-anchor:middle;" transform="matrix(1 0 0 1 1153.13 322)">Light</text>
  <text style="stroke:none;fill:black;font-family:sans-serif;font-size:13;text-anchor:middle;" transform="matrix(1 0 0 1 1449.84 322)">Regular</text>
  <text style="stroke:none;fill:black;font-family:sans-serif;font-size:13;text-anchor:middle;" transform="matrix(1 0 0 1 1746.56 322)">Medium</text>
  <text style="stroke:none;fill:black;font-family:sans-serif;font-size:13;text-anchor:middle;" transform="matrix(1 0 0 1 2043.27 322)">Semibold</text>
  <text style="stroke:none;fill:black;font-family:sans-serif;font-size:13;text-anchor:middle;" transform="matrix(1 0 0 1 2339.98 322)">Bold</text>
  <text style="stroke:none;fill:black;font-family:sans-serif;font-size:13;text-anchor:middle;" transform="matrix(1 0 0 1 2636.69 322)">Heavy</text>
  <text style="stroke:none;fill:black;font-family:sans-serif;font-size:13;text-anchor:middle;" transform="matrix(1 0 0 1 2933.4 322)">Black</text>
  <line style="fill:none;stroke:black;opacity:1;stroke-width:0.5;" x1="263" x2="3036" y1="1903" y2="1903"/>
  <g transform="matrix(0.2 0 0 0.2 263 1933)">
   <path d="m46.2402 4.15039c21.7773 0 39.4531-17.627 39.4531-39.4043s-17.6758-39.4043-39.4531-39.4043c-21.7285 0-39.4043 17.627-39.4043 39.4043s17.6758 39.4043 39.4043 39.4043Zm0-7.42188c-17.6758 0-31.9336-14.3066-31.9336-31.9824s14.2578-31.9824 31.9336-31.9824 31.9824 14.3066 31.9824 31.9824-14.3066 31.9824-31.9824 31.9824Zm-17.9688-31.9824c0 2.14844 1.51367 3.61328 3.75977 3.61328h10.498v10.5957c0 2.19727 1.46484 3.71094 3.61328 3.71094 2.24609 0 3.71094-1.51367 3.71094-3.71094v-10.5957h10.5957c2.19727 0 3.71094-1.46484 3.71094-3.61328 0-2.19727-1.51367-3.71094-3.71094-3.71094h-10.5957v-10.5469c0-2.24609-1.46484-3.75977-3.71094-3.75977-2.14844 0-3.61328 1.51367-3.61328 3.75977v10.5469h-10.498c-2.24609 0-3.75977 1.51367-3.75977 3.71094Z"/>
  </g>
  <g transform="matrix(0.2 0 0 0.2 281.506 1933)">
   <path d="m58.5449 14.5508c27.4902 0 49.8047-22.3145 49.8047-49.8047s-22.3145-49.8047-49.8047-49.8047-49.8047 22.3145-49.8047 49.8047 22.3145 49.8047 49.8047 49.8047Zm0-8.30078c-22.9492 0-41.5039-18.5547-41.5039-41.5039s18.5547-41.5039 41.5039-41.5039 41.5039 18.5547 41.5039 41.5039-18.5547 41.5039-41.5039 41.5039Zm-22.6562-41.5039c0 2.39258 1.66016 4.00391 4.15039 4.00391h14.3555v14.4043c0 2.44141 1.66016 4.15039 4.05273 4.15039 2.44141 0 4.15039-1.66016 4.15039-4.15039v-14.4043h14.4043c2.44141 0 4.15039-1.61133 4.15039-4.00391 0-2.44141-1.70898-4.15039-4.15039-4.15039h-14.4043v-14.3555c0-2.49023-1.70898-4.19922-4.15039-4.19922-2.39258 0-4.05273 1.70898-4.05273 4.19922v14.3555h-14.3555c-2.49023 0-4.15039 1.70898-4.15039 4.15039Z"/>
  </g>
  <g transform="matrix(0.2 0 0 0.2 304.924 1933)">
   <path d="m74.8535 28.3203c35.1074 0 63.623-28.4668 63.623-63.5742s-28.5156-63.623-63.623-63.623-63.5742 28.5156-63.5742 63.623 28.4668 63.5742 63.5742 63.5742Zm0-9.08203c-30.127 0-54.4922-24.3652-54.4922-54.4922s24.3652-54.4922 54.4922-54.4922 54.4922 24.3652 54.4922 54.4922-24.3652 54.4922-54.4922 54.4922Zm-28.8574-54.4922c0 2.58789 1.85547 4.39453 4.58984 4.39453h19.7266v19.7754c0 2.68555 1.85547 4.58984 4.44336 4.58984 2.68555 0 4.54102-1.85547 4.54102-4.58984v-19.7754h19.7754c2.68555 0 4.58984-1.80664 4.58984-4.39453 0-2.73438-1.85547-4.58984-4.58984-4.58984h-19.7754v-19.7266c0-2.73438-1.85547-4.63867-4.54102-4.63867-2.58789 0-4.44336 1.9043-4.44336 4.63867v19.7266h-19.7266c-2.73438 0-4.58984 1.85547-4.58984 4.58984Z"/>
  </g>
  <text style="stroke:none;fill:black;font-family:sans-serif;font-size:13;font-weight:bold;" transform="matrix(1 0 0 1 263 1953)">Design Variations</text>
  <text style="stroke:none;fill:black;font-family:sans-serif;font-size:13;" transform="matrix(1 0 0 1 263 1971)">Symbols are supported in up to nine weights and three scales.</text>
  <text style="stroke:none;fill:black;font-family:sans-serif;font-size:13;" transform="matrix(1 0 0 1 263 1989)">For optimal layout with text and other symbols, vertically align</text>
  <text style="stroke:none;fill:black;font-family:sans-serif;font-size:13;" transform="matrix(1 0 0 1 263 2007)">symbols with the adjacent text.</text>
  <line style="fill:none;stroke:#00AEEF;stroke-width:0.5;opacity:1.0;" x1="776" x2="776" y1="1919" y2="1933"/>
  <g transform="matrix(0.2 0 0 0.2 776 1933)">
   <path d="m16.5527 0.78125c2.58789 0 3.85742-0.976562 4.78516-3.71094l6.29883-17.2363h28.8086l6.29883 17.2363c0.927734 2.73438 2.19727 3.71094 4.73633 3.71094 2.58789 0 4.24805-1.5625 4.24805-4.00391 0-0.830078-0.146484-1.61133-0.537109-2.63672l-22.9004-60.9863c-1.12305-2.97852-3.125-4.49219-6.25-4.49219-3.02734 0-5.07812 1.46484-6.15234 4.44336l-22.9004 61.084c-0.390625 1.02539-0.537109 1.80664-0.537109 2.63672 0 2.44141 1.5625 3.95508 4.10156 3.95508Zm13.4766-28.3691 11.8652-32.8613h0.244141l11.8652 32.8613Z"/>
  </g>
  <line style="fill:none;stroke:#00AEEF;stroke-width:0.5;opacity:1.0;" x1="792.836" x2="792.836" y1="1919" y2="1933"/>
  <text style="stroke:none;fill:black;font-family:sans-serif;font-size:13;font-weight:bold;" transform="matrix(1 0 0 1 776 1953)">Margins</text>
  <text style="stroke:none;fill:black;font-family:sans-serif;font-size:13;" transform="matrix(1 0 0 1 776 1971)">Leading and trailing margins on the left and right side of each symbol</text>
  <text style="stroke:none;fill:black;font-family:sans-serif;font-size:13;" transform="matrix(1 0 0 1 776 1989)">can be adjusted by modifying the x-location of the margin guidelines.</text>
  <text style="stroke:none;fill:black;font-family:sans-serif;font-size:13;" transform="matrix(1 0 0 1 776 2007)">Modifications are automatically applied proportionally to all</text>
  <text style="stroke:none;fill:black;font-family:sans-serif;font-size:13;" transform="matrix(1 0 0 1 776 2025)">scales and weights.</text>
  <g transform="matrix(0.2 0 0 0.2 1289 1933)">
   <path d="m14.209 9.32617 8.49609 8.54492c4.29688 4.3457 9.22852 4.05273 13.8672-1.07422l53.4668-58.9355-4.83398-4.88281-53.0762 58.3984c-1.75781 2.00195-3.41797 2.49023-5.76172 0.146484l-5.85938-5.81055c-2.34375-2.29492-1.80664-4.00391 0.195312-5.81055l57.373-54.0039-4.88281-4.83398-57.959 54.4434c-4.93164 4.58984-5.32227 9.47266-1.02539 13.8184Zm32.0801-90.9668c-2.09961 2.05078-2.24609 4.93164-1.07422 6.88477 1.17188 1.80664 3.4668 2.97852 6.68945 2.14844 7.32422-1.70898 14.9414-2.00195 22.0703 2.68555l-2.92969 7.27539c-1.70898 4.15039-0.830078 7.08008 1.85547 9.81445l11.4746 11.5723c2.44141 2.44141 4.49219 2.53906 7.32422 2.05078l5.32227-0.976562 3.32031 3.36914-0.195312 2.7832c-0.195312 2.49023 0.439453 4.39453 2.88086 6.78711l3.80859 3.71094c2.39258 2.39258 5.46875 2.53906 7.8125 0.195312l14.5508-14.5996c2.34375-2.34375 2.24609-5.32227-0.146484-7.71484l-3.85742-3.80859c-2.39258-2.39258-4.24805-3.17383-6.64062-2.97852l-2.88086 0.244141-3.22266-3.17383 1.2207-5.61523c0.634766-2.83203-0.146484-5.0293-3.07617-7.95898l-10.9863-10.9375c-16.6992-16.6016-38.8672-16.2109-53.3203-1.75781Zm7.4707 1.85547c12.1582-8.88672 28.6133-7.37305 39.7461 3.75977l12.1582 12.0605c1.17188 1.17188 1.36719 2.09961 1.02539 3.80859l-1.61133 7.42188 7.51953 7.42188 4.93164-0.292969c1.26953-0.0488281 1.66016 0.0488281 2.63672 1.02539l2.88086 2.88086-12.207 12.207-2.88086-2.88086c-0.976562-0.976562-1.12305-1.36719-1.07422-2.68555l0.341797-4.88281-7.4707-7.42188-7.61719 1.26953c-1.61133 0.341797-2.34375 0.195312-3.56445-0.976562l-10.0098-10.0098c-1.26953-1.17188-1.41602-2.00195-0.634766-3.85742l4.39453-10.4492c-7.8125-7.27539-17.9688-10.4004-28.125-7.42188-0.78125 0.195312-1.07422-0.439453-0.439453-0.976562Z"/>
  </g>
  <text style="stroke:none;fill:black;font-family:sans-serif;font-size:13;font-weight:bold;" transform="matrix(1 0 0 1 1289 1953)">Exporting</text>
  <text style="stroke:none;fill:black;font-family:sans-serif;font-size:13;" transform="matrix(1 0 0 1 1289 1971)">Symbols should be outlined when exporting to ensure the</text>
  <text style="stroke:none;fill:black;font-family:sans-serif;font-size:13;" transform="matrix(1 0 0 1 1289 1989)">design is preserved when submitting to Xcode.</text>
  <text id="template-version" style="stroke:none;fill:black;font-family:sans-serif;font-size:13;text-anchor:end;" transform="matrix(1 0 0 1 3036 1933)">Template v.6.0</text>
  <text style="stroke:none;fill:black;font-family:sans-serif;font-size:13;text-anchor:end;" transform="matrix(1 0 0 1 3036 1951)">Requires Xcode 16 or greater</text>
  <text id="descriptive-name" style="stroke:none;fill:black;font-family:sans-serif;font-size:13;text-anchor:end;" transform="matrix(1 0 0 1 3036 1969)">Generated from </text>
  <text style="stroke:none;fill:black;font-family:sans-serif;font-size:13;text-anchor:end;" transform="matrix(1 0 0 1 3036 1987)">Typeset at 100.0 points</text>
  <text style="stroke:none;fill:black;font-family:sans-serif;font-size:13;" transform="matrix(1 0 0 1 263 726)">Small</text>
  <text style="stroke:none;fill:black;font-family:sans-serif;font-size:13;" transform="matrix(1 0 0 1 263 1156)">Medium</text>
  <text style="stroke:none;fill:black;font-family:sans-serif;font-size:13;" transform="matrix(1 0 0 1 263 1586)">Large</text>
 </g>
 <g id="Guides">
  <g id="H-reference" style="fill:#27AAE1;stroke:none;" transform="matrix(1 0 0 1 339 696)">
   <path d="M0.993654 0L3.63775 0L29.3281-67.1323L30.0303-67.1323L30.0303-70.459L28.1226-70.459ZM11.6885-24.4799L46.9815-24.4799L46.2315-26.7285L12.4385-26.7285ZM55.1196 0L57.7637 0L30.6382-70.459L29.4326-70.459L29.4326-67.1323Z"/>
  </g>
  <line id="Baseline-S" style="fill:none;stroke:#27AAE1;opacity:1;stroke-width:0.5;" x1="263" x2="3036" y1="696" y2="696"/>
  <line id="Capline-S" style="fill:none;stroke:#27AAE1;opacity:1;stroke-width:0.5;" x1="263" x2="3036" y1="625.541" y2="625.541"/>
  <g id="H-reference" style="fill:#27AAE1;stroke:none;" transform="matrix(1 0 0 1 339 1126)">
   <path d="M0.993654 0L3.63775 0L29.3281-67.1323L30.0303-67.1323L30.0303-70.459L28.1226-70.459ZM11.6885-24.4799L46.9815-24.4799L46.2315-26.7285L12.4385-26.7285ZM55.1196 0L57.7637 0L30.6382-70.459L29.4326-70.459L29.4326-67.1323Z"/>
  </g>
  <line id="Baseline-M" style="fill:none;stroke:#27AAE1;opacity:1;stroke-width:0.5;" x1="263" x2="3036" y1="1126" y2="1126"/>
  <line id="Capline-M" style="fill:none;stroke:#27AAE1;opacity:1;stroke-width:0.5;" x1="263" x2="3036" y1="1055.54" y2="1055.54"/>
  <g id="H-reference" style="fill:#27AAE1;stroke:none;" transform="matrix(1 0 0 1 339 1556)">
   <path d="M0.993654 0L3.63775 0L29.3281-67.1323L30.0303-67.1323L30.0303-70.459L28.1226-70.459ZM11.6885-24.4799L46.9815-24.4799L46.2315-26.7285L12.4385-26.7285ZM55.1196 0L57.7637 0L30.6382-70.459L29.4326-70.459L29.4326-67.1323Z"/>
  </g>
  <line id="Baseline-L" style="fill:none;stroke:#27AAE1;opacity:1;stroke-width:0.5;" x1="263" x2="3036" y1="1556" y2="1556"/>
  <line id="Capline-L" style="fill:none;stroke:#27AAE1;opacity:1;stroke-width:0.5;" x1="263" x2="3036" y1="1485.54" y2="1485.54"/>
  <line id="right-margin-Black-S" style="fill:none;stroke:#00AEEF;stroke-width:0.5;opacity:1.0;" x1="2992.7" x2="2992.7" y1="600.785" y2="720.121"/>
  <line id="left-margin-Black-S" style="fill:none;stroke:#00AEEF;stroke-width:0.5;opacity:1.0;" x1="2874.1" x2="2874.1" y1="600.785" y2="720.121"/>
  <line id="right-margin-Regular-S" style="fill:none;stroke:#00AEEF;stroke-width:0.5;opacity:1.0;" x1="1503.14" x2="1503.14" y1="600.785" y2="720.121"/>
  <line id="left-margin-Regular-S" style="fill:none;stroke:#00AEEF;stroke-width:0.5;opacity:1.0;" x1="1396.55" x2="1396.55" y1="600.785" y2="720.121"/>
  <line id="right-margin-Ultralight-S" style="fill:none;stroke:#00AEEF;stroke-width:0.5;opacity:1.0;" x1="608.489" x2="608.489" y1="600.785" y2="720.121"/>
  <line id="left-margin-Ultralight-S" style="fill:none;stroke:#00AEEF;stroke-width:0.5;opacity:1.0;" x1="510.933" x2="510.933" y1="600.785" y2="720.121"/>
 </g>
 <g id="Symbols">
  <g id="Black-S" transform="matrix(1 0 0 1 2874.1 696)">
   <path class="monochrome-0 multicolor-0:tintColor hierarchical-0:secondary SFSymbolsPreviewWireframe" d="M18.4082 6.34766L101.514 6.34766L101.514-1.46484C101.514-3.80859 100.049-5.22461 97.7539-5.22461L96.6797-5.22461L96.6797-50.8789L99.6094-50.8789C103.174-50.8789 105.273-53.5645 105.273-56.2012C105.273-58.1543 104.199-59.9609 101.953-61.2793L66.1133-81.9336C64.2578-83.0078 62.0117-83.6914 59.9609-83.6914C57.9102-83.6914 55.6641-83.0078 53.8086-81.9336L17.9688-61.2793C15.7227-59.9609 14.6484-58.1543 14.6484-56.2012C14.6484-53.5645 16.748-50.8789 20.3125-50.8789L23.2422-50.8789L23.2422-5.22461L22.168-5.22461C19.873-5.22461 18.4082-3.80859 18.4082-1.46484ZM15.1367 13.1836L103.418 13.1836C106.299 13.1836 108.838 10.8398 108.838 7.8125C108.838 4.88281 106.299 2.44141 103.418 2.44141L15.1367 2.44141C12.2559 2.44141 9.76562 4.88281 9.76562 7.8125C9.76562 10.791 12.2559 13.1836 15.1367 13.1836Z"/>
   <path class="monochrome-1 multicolor-1:tintColor hierarchical-1:primary SFSymbolsPreviewWireframe" d="M59.9121-8.44727C59.375-8.44727 58.8867-8.88672 58.8867-9.42383L58.8867-12.6465C52.3926-12.793 47.998-15.0391 46.2891-17.9688C45.8008-18.8965 45.5566-19.7754 45.5566-20.752C45.5566-23.3887 47.4121-24.7559 50.0488-24.7559C52.0996-24.7559 53.3203-23.7305 54.3945-21.9727C55.2246-20.6543 56.5918-20.0195 58.8867-19.9219L58.8867-25.8301L55.7617-26.416C49.6582-27.6367 45.1172-30.5176 45.1172-36.6699C45.1172-43.75 51.7578-47.2168 58.8867-47.4121L58.8867-50.7812C58.8867-51.3184 59.375-51.7578 59.9121-51.7578C60.4492-51.7578 60.9375-51.3184 60.9375-50.7812L60.9375-47.3633C68.1152-46.9727 73.584-43.7012 73.584-38.916C73.584-36.6211 71.6309-35.4492 69.3848-35.4492C67.334-35.4492 65.918-36.4746 64.7461-38.0371C63.8672-39.3066 62.4023-39.8926 60.9375-40.0879L60.9375-34.2285L63.9648-33.5449C70.5078-32.1289 74.7559-29.9316 74.7559-23.6816C74.7559-16.2598 67.9199-13.0859 60.9375-12.6953L60.9375-9.42383C60.9375-8.88672 60.4492-8.44727 59.9121-8.44727ZM54.7363-37.6465C54.7363-36.3281 55.7129-35.5469 58.3496-34.8145L58.8867-34.668L58.8867-40.1367C56.2012-39.9902 54.7363-39.1113 54.7363-37.6465ZM60.9375-19.9219C63.6719-20.1172 65.1855-21.0449 65.1855-22.5098C65.1855-24.1211 63.623-24.8047 61.377-25.293L60.9375-25.3906Z"/>
   <path class="monochrome-2 multicolor-2:tintColor hierarchical-2:primary SFSymbolsPreviewWireframe" d="M103.272-4.48836C106.923-0.837264 106.923 5.09118 103.272 8.74227C99.6207 12.3934 93.6922 12.3934 90.0411 8.74227L15.3282-65.9706C11.6771-69.6217 11.6771-75.5502 15.3282-79.2013C18.9793-82.8524 24.9078-82.8524 28.5589-79.2013Z" data-clipstroke-keyframes="0 0 0.0 0.5 0.6082697 0 1.0 0.10826972 0.0"/>
   <path class="monochrome-3 multicolor-3:tintColor hierarchical-3:primary SFSymbolsPreviewWireframe" d="M99.1217-0.338247C100.482 1.02234 100.482 3.23158 99.1217 4.59217C97.7611 5.95275 95.5518 5.95275 94.1912 4.59217L19.4783-70.1207C18.1178-71.4813 18.1178-73.6906 19.4783-75.0511C20.8389-76.4117 23.0482-76.4117 24.4088-75.0511Z" data-clipstroke-keyframes="0 0 0.0 0.5 0.5458696 0 1.0 0.04586959 0.0"/>
  </g>
  <g id="Regular-S" transform="matrix(1 0 0 1 1396.55 696)">
   <path class="monochrome-0 multicolor-0:tintColor hierarchical-0:secondary SFSymbolsPreviewWireframe" d="M15.2832 0.927734L91.3574 0.927734L91.3574-3.85742C91.3574-5.61523 90.332-6.64062 88.5254-6.64062L86.084-6.64062L86.084-49.4629L89.3555-49.4629C91.748-49.4629 93.1641-51.2207 93.1641-52.9785C93.1641-54.2969 92.3828-55.4199 90.8203-56.3965L58.2031-75.1953C56.6406-76.123 54.9316-76.6113 53.3203-76.6113C51.6602-76.6113 49.9512-76.123 48.3887-75.1953L15.7715-56.3965C14.1602-55.4199 13.4277-54.2969 13.4277-52.9785C13.4277-51.2207 14.8438-49.4629 17.2363-49.4629L20.5566-49.4629L20.5566-6.64062L18.1152-6.64062C16.3086-6.64062 15.2832-5.61523 15.2832-3.85742ZM13.2812 6.10352L93.3105 6.10352C95.2148 6.10352 96.8262 4.49219 96.8262 2.53906C96.8262 0.634766 95.2148-0.976562 93.3105-0.976562L13.2812-0.976562C11.377-0.976562 9.76562 0.634766 9.76562 2.53906C9.76562 4.49219 11.377 6.10352 13.2812 6.10352Z"/>
   <path class="monochrome-1 multicolor-1:tintColor hierarchical-1:primary SFSymbolsPreviewWireframe" d="M53.3203-10.4492C52.4902-10.4492 51.8555-11.1328 51.8555-11.8652L51.8555-15.2344C47.0703-15.625 42.041-17.8711 40.5762-22.6562C40.4297-23.0957 40.332-23.5352 40.332-23.9746C40.332-25.3906 41.4551-26.2695 42.7246-26.2695C43.8965-26.2695 44.5801-25.6836 45.166-24.3652C46.4844-21.1914 48.6816-19.873 51.8555-19.5801L51.8555-31.1523L50.9277-31.3965C46.0449-32.5684 40.9668-34.8145 40.9668-40.918C40.9668-46.7285 45.8984-50.3418 51.8555-50.8301L51.8555-54.1992C51.8555-54.9316 52.4902-55.6152 53.3203-55.6152C54.1016-55.6152 54.7363-54.9316 54.7363-54.1992L54.7363-50.8301C59.9121-50.3418 65.6738-46.9238 65.6738-42.041C65.6738-40.4785 64.4043-39.7461 63.2812-39.7461C62.0605-39.7461 61.2793-40.4297 60.791-41.748C59.8145-44.5312 57.8125-46.1426 54.7363-46.4844L54.7363-35.3516L55.8594-35.1074C61.2793-33.8379 66.2598-31.4941 66.2598-25.3418C66.2598-18.7988 61.0352-15.625 54.7363-15.2344L54.7363-11.8652C54.7363-11.1328 54.1016-10.4492 53.3203-10.4492ZM45.8496-41.3574C45.8496-38.3789 48.3398-36.9141 51.6602-36.084L51.8555-36.0352L51.8555-46.4844C48.7793-46.0449 45.8496-44.4336 45.8496-41.3574ZM54.7363-19.5312C58.1543-19.8242 61.3281-21.1426 61.3281-24.9512C61.3281-28.418 58.3008-29.5898 54.9805-30.4199L54.7363-30.5176Z"/>
   <path class="monochrome-2 multicolor-2:tintColor hierarchical-2:primary SFSymbolsPreviewWireframe" d="M94.3483-6.06714C97.6298-2.78573 97.6298 2.54245 94.3483 5.82386C91.0669 9.10527 85.7388 9.10527 82.4574 5.82386L12.2417-64.3918C8.96024-67.6733 8.96024-73.0014 12.2417-76.2828C15.5231-79.5643 20.8512-79.5643 24.1326-76.2828Z" data-clipstroke-keyframes="0 0 0.0 0.5 0.60452837 0 1.0 0.104528375 0.0"/>
   <path class="monochrome-3 multicolor-3:tintColor hierarchical-3:primary SFSymbolsPreviewWireframe" d="M90.8819-2.60066C92.2501-1.23245 92.2501 0.98917 90.8819 2.35738C89.5137 3.72558 87.292 3.72558 85.9238 2.35738L15.7081-67.8583C14.3399-69.2265 14.3399-71.4482 15.7081-72.8164C17.0763-74.1846 19.298-74.1846 20.6662-72.8164Z" data-clipstroke-keyframes="0 0 0.0 0.5 0.5487678 0 1.0 0.048767686 0.0"/>
  </g>
  <g id="Ultralight-S" transform="matrix(1 0 0 1 510.933 696)">
   <path class="monochrome-0 multicolor-0:tintColor hierarchical-0:secondary SFSymbolsPreviewWireframe" d="M12.9673 2.06298L84.5914 2.06298L84.5914-1.26906C84.5914-1.70999 84.2471-2.05424 83.7574-2.05424L81.316-2.05424L81.316-51.4609L85.0415-51.4609C85.8448-51.4609 86.2164-51.9473 86.2164-52.5698C86.2164-52.8892 86.0254-53.3311 85.5074-53.6265L52.4815-72.6978C51.2823-73.3985 50.0274-73.7505 48.7793-73.7505C47.5279-73.7505 46.2276-73.3985 45.0283-72.6978L12.0025-53.6265C11.5264-53.3311 11.3389-52.8892 11.3389-52.5698C11.3389-51.9473 11.6651-51.4609 12.5137-51.4609L16.2427-51.4609L16.2427-2.05424L13.8013-2.05424C13.3115-2.05424 12.9673-1.70999 12.9673-1.26906ZM10.8745 3.2427L86.6807 3.2427C87.2681 3.2427 87.7896 2.72121 87.7896 2.13037C87.7896 1.49755 87.2681 1.02147 86.6807 1.02147L10.8745 1.02147C10.2417 1.02147 9.76562 1.49755 9.76562 2.13037C9.76562 2.72121 10.2417 3.2427 10.8745 3.2427Z"/>
   <path class="monochrome-1 multicolor-1:tintColor hierarchical-1:primary SFSymbolsPreviewWireframe" d="M48.7793-10.4038C48.3579-10.4038 47.9956-10.7695 47.9956-11.1841L47.9956-15.0073C43.1651-15.2617 38.5445-17.5532 37.4883-22.293C37.4326-22.5508 37.3804-22.854 37.3804-23.1118C37.3804-23.7559 37.7769-24.1807 38.4107-24.1807C38.9468-24.1807 39.4034-23.9126 39.4898-23.23C40.127-19.3296 43.6866-17.1939 47.9956-16.9463L47.9956-30.4712L47.0225-30.7153C42.4121-31.7964 38.106-33.9063 38.106-38.6929C38.106-43.7769 42.9468-46.6636 47.9956-46.9702L47.9956-50.4302C47.9956-50.8448 48.3579-51.2105 48.7793-51.2105C49.1973-51.2105 49.5596-50.8448 49.5596-50.4302L49.5596-46.9702C55.1441-46.6636 59.5889-43.0186 59.5889-39.3164C59.5889-38.7075 59.0914-38.293 58.5132-38.293C58.0191-38.293 57.5557-38.6587 57.4307-39.2959C56.7266-42.8965 53.3623-44.7803 49.5596-44.9859L49.5596-32.2637L51.0005-31.8833C56.1934-30.6592 60.1749-28.5879 60.1749-23.6162C60.1749-18.0269 55.0411-15.2617 49.5596-15.0073L49.5596-11.1841C49.5596-10.7695 49.1973-10.4038 48.7793-10.4038ZM40.2642-38.8145C40.2642-34.8824 44.253-33.4629 47.437-32.7237L47.9956-32.584L47.9956-44.9859C44.2383-44.728 40.2642-42.8443 40.2642-38.8145ZM49.5596-16.9429C53.9312-17.145 58.0132-19.0537 58.0132-23.4526C58.0132-27.4644 54.4409-28.9541 50.5757-29.875L49.5596-30.1089Z"/>
   <path class="monochrome-2 multicolor-2:tintColor hierarchical-2:primary SFSymbolsPreviewWireframe" d="M86.4642-3.06064C87.9868-1.53808 87.9868 0.934172 86.4642 2.45673C84.9417 3.97929 82.4694 3.97929 80.9469 2.45673L11.0918-67.3983C9.56922-68.9209 9.56922-71.3932 11.0918-72.9157C12.6143-74.4383 15.0866-74.4383 16.6091-72.9157Z" data-clipstroke-keyframes="0 0 0.0 0.5 0.55392593 0 1.0 0.053925958 0.0"/>
   <path class="monochrome-3 multicolor-3:tintColor hierarchical-3:primary SFSymbolsPreviewWireframe" d="M84.4133-1.00975C84.804-0.619106 84.804 0.0152006 84.4133 0.405845C84.0227 0.796489 83.3884 0.796489 82.9977 0.405845L13.1427-69.4492C12.752-69.8399 12.752-70.4742 13.1427-70.8648C13.5333-71.2555 14.1676-71.2555 14.5583-70.8648Z" data-clipstroke-keyframes="0 0 0.0 0.5 0.5139301 0 1.0 0.013930082 0.0"/>
  </g>
 </g>
</svg>
